PathFileType	4	(X/Y/Z)	/Users/itak/Documents/Research/Walk-IL/dataset/trc/00268_00010.trc
DataRate	CameraRate	NumFrames	NumMarkers	Units	OrigDataRate	OrigDataStartFrame	OrigNumFrames
100.000000	100.000000	4	53	mm	100.000000	242	485
Frame#	Time	RPSI			LPSI			L3			STRN			T10			C7			CLAV			RBAK			LBAK			LSHO			LUPA			LAEL			LAOL			LWTS			LWPS			LFRA			LIFD			LHPS			LHTS			RSHO			RUPA			RAEL			RAOL			RWTS			RWPS			RFRA			RIFD			RHTS			RHPS			RBHD			LFHD			RFHD			LBHD			LHIP			RHIP			RASI			LKNE			LANK			LTIP			LTOE			LMT1			LMT5			LHEE			RKNE			RTHI			RANK			RTIP			RTOE			RMT1			RMT5			RHEE			LTHI			LASI			
		X1	Y1	Z1	X2	Y2	Z2	X3	Y3	Z3	X4	Y4	Z4	X5	Y5	Z5	X6	Y6	Z6	X7	Y7	Z7	X8	Y8	Z8	X9	Y9	Z9	X10	Y10	Z10	X11	Y11	Z11	X12	Y12	Z12	X13	Y13	Z13	X14	Y14	Z14	X15	Y15	Z15	X16	Y16	Z16	X17	Y17	Z17	X18	Y18	Z18	X19	Y19	Z19	X20	Y20	Z20	X21	Y21	Z21	X22	Y22	Z22	X23	Y23	Z23	X24	Y24	Z24	X25	Y25	Z25	X26	Y26	Z26	X27	Y27	Z27	X28	Y28	Z28	X29	Y29	Z29	X30	Y30	Z30	X31	Y31	Z31	X32	Y32	Z32	X33	Y33	Z33	X34	Y34	Z34	X35	Y35	Z35	X36	Y36	Z36	X37	Y37	Z37	X38	Y38	Z38	X39	Y39	Z39	X40	Y40	Z40	X41	Y41	Z41	X42	Y42	Z42	X43	Y43	Z43	X44	Y44	Z44	X45	Y45	Z45	X46	Y46	Z46	X47	Y47	Z47	X48	Y48	Z48	X49	Y49	Z49	X50	Y50	Z50	X51	Y51	Z51	X52	Y52	Z52	X53	Y53	Z53	

243	2.42	-125.6170806884766	961.4603271484375	96.00106048583984	-98.23260498046875	944.3350219726562	-75.26557922363281	-88.44200897216797	1038.713500976562	20.31752967834473	174.6124572753906	1194.591186523438	26.29843711853027	-93.01718139648438	1153.082641601562	35.2850341796875	-36.51702880859375	1389.545654296875	16.49148941040039	118.2905807495117	1298.533935546875	18.03219032287598	-85.91136932373047	1261.30517578125	102.0394515991211	-60.47851181030273	1349.193359375	-85.24283599853516	27.64111709594727	1350.553344726562	-143.7146759033203	-15.65541458129883	1234.9814453125	-210.7163543701172	-34.95294570922852	1034.746704101562	-224.0573120117188	-93.81156921386719	1026.421997070312	-159.9138031005859	56.10028457641602	824.9331665039062	-190.5828399658203	13.10429286956787	810.0433349609375	-246.8660278320312	-23.04069709777832	934.0087280273438	-234.7581787109375	73.28825378417969	638.13330078125	-193.7782592773438	24.81348991394043	721.4398193359375	-244.8768768310547	83.05548095703125	728.639892578125	-215.9138031005859	48.06362533569336	1370.78466796875	169.7059173583984	56.11103439331055	1313.244262695312	240.1658630371094	88.01441955566406	1048.654052734375	292.0858459472656	28.35524749755859	1029.41650390625	218.0158081054688	245.8458862304688	888.5269165039062	200.9804382324219	226.7413024902344	863.3360595703125	279.9695739746094	131.2907104492188	993.19384765625	294.3189697265625	335.2335510253906	728.3190307617188	179.9546051025391	327.6339721679688	800.5226440429688	200.4163665771484	296.6488037109375	775.902587890625	258.7012023925781	-26.33187484741211	1525.120727539062	90.24141693115234	110.8718338012695	1605.630126953125	-50.56647109985352	123.1476440429688	1603.896484375	41.80127334594727	-42.99048233032227	1517.8173828125	-56.24588012695312	-11.23426151275635	896.983642578125	-150.3918762207031	-42.34946441650391	914.4937744140625	217.2474060058594	87.00908660888672	917.2857055664062	166.8719940185547	208.8411102294922	478.7525329589844	-98.60040283203125	286.1392517089844	36.79147720336914	-62.29013824462891	243.4344177246094	250.3966369628906	-93.44644927978516	494.0914916992188	84.22837066650391	-31.96225738525391	433.7492065429688	58.03968811035156	15.20063304901123	404.2590026855469	64.91606903076172	-91.65879821777344	250.0843505859375	24.15871047973633	2.241581678390503	-6.144855976104736	436.4756774902344	170.1714782714844	18.22576332092285	700.3392944335938	217.1998291015625	-256.5050659179688	62.75185394287109	108.3124923706055	-43.81528472900391	314.6729125976562	147.5056457519531	-66.19843292236328	45.09758377075195	52.5389518737793	-122.4375915527344	47.41096496582031	13.885422706604	-152.8670654296875	39.50550842285156	130.0904693603516	-308.90234375	78.69270324707031	58.46496200561523	146.5946044921875	603.2929077148438	-131.3817596435547	115.036262512207	912.962646484375	-82.35778045654297	
244	2.43	-135.6244812011719	961.4464111328125	97.22140502929688	-108.257194519043	943.47998046875	-73.91667175292969	-98.42699432373047	1038.37939453125	20.71397590637207	165.5970001220703	1194.421752929688	29.05187606811523	-102.7384643554688	1153.460571289062	34.6526985168457	-44.78793334960938	1389.885131835938	16.59012413024902	109.5787124633789	1298.4462890625	20.28928184509277	-95.81820678710938	1261.709594726562	101.2653503417969	-67.30141448974609	1349.960571289062	-85.57624053955078	21.7297420501709	1351.055297851562	-142.5755004882812	-20.58571815490723	1235.969116210938	-210.7631683349609	-39.91738891601562	1035.716552734375	-224.9505004882812	-101.2626953125	1027.6533203125	-162.810302734375	50.91267013549805	826.6732788085938	-187.9936981201172	10.32813739776611	811.7069091796875	-246.0155792236328	-27.13758659362793	935.4287719726562	-235.1071014404297	69.67034149169922	640.0413208007812	-190.8454284667969	22.65942192077637	723.1253662109375	-243.8461456298828	79.61135864257812	730.67724609375	-212.3481140136719	37.54225921630859	1370.597534179688	171.0067443847656	44.1551628112793	1312.98388671875	241.4511260986328	73.93531799316406	1048.2958984375	293.9743957519531	15.33983325958252	1029.336669921875	219.0557098388672	234.0331115722656	890.21484375	203.7631072998047	214.3181610107422	864.2431030273438	282.3374633789062	117.3799285888672	993.2002563476562	296.548095703125	325.3829650878906	731.1412353515625	182.4576416015625	316.7594604492188	803.0736694335938	203.4346008300781	285.3428955078125	777.6788330078125	261.1583251953125	-34.34234237670898	1525.490356445312	90.90465545654297	104.1929092407227	1605.200317382812	-49.04132080078125	115.7531127929688	1603.615966796875	43.44553756713867	-49.95940780639648	1517.940673828125	-55.67519760131836	-20.30932807922363	896.2120361328125	-149.5774078369141	-52.08781814575195	915.41845703125	218.5499420166016	77.17382049560547	918.3934326171875	168.2612152099609	200.6665802001953	479.0106811523438	-98.16592407226562	280.810302734375	36.35847854614258	-62.22859573364258	236.1038055419922	250.8188934326172	-93.27464294433594	487.8262023925781	87.95093536376953	-33.18368530273438	428.2682800292969	60.95909118652344	14.40144729614258	398.1017150878906	66.23136901855469	-92.35011291503906	245.0779266357422	23.64777183532715	2.500372409820557	-13.80350494384766	437.3021240234375	170.3729705810547	9.64159107208252	701.2853393554688	218.4752349853516	-257.7397155761719	60.05524063110352	107.4933166503906	-49.37409973144531	314.9670715332031	147.3899078369141	-66.55612945556641	45.15137481689453	52.2640380859375	-122.9955978393555	46.47992324829102	13.44910526275635	-153.6139984130859	39.25259780883789	129.5700073242188	-310.3633728027344	74.548095703125	57.43262481689453	137.1105041503906	603.0180053710938	-130.3743896484375	105.266242980957	912.8873291015625	-80.94697570800781	
245	2.44	-145.3102722167969	961.4923095703125	98.67893981933594	-118.1977844238281	942.7755126953125	-72.40343475341797	-108.2674713134766	1037.935913085938	21.2801685333252	156.6622924804688	1194.432006835938	31.67045974731445	-112.2423782348633	1153.71240234375	34.03081512451172	-53.06052780151367	1390.254150390625	16.63836288452148	100.9107437133789	1298.52685546875	22.42481994628906	-105.6534881591797	1262.038452148438	100.4073486328125	-74.15052795410156	1350.711181640625	-85.94087219238281	15.73906803131104	1351.614501953125	-141.5009765625	-25.62530708312988	1236.995239257812	-210.8352966308594	-44.98575973510742	1036.796997070312	-225.8987731933594	-108.5781555175781	1028.908569335938	-165.7198944091797	45.54946517944336	828.4217529296875	-185.5463104248047	7.402373790740967	813.4022216796875	-245.1956329345703	-31.38620567321777	936.8677978515625	-235.5349578857422	65.70376586914062	641.9343872070312	-188.00537109375	20.29678344726562	724.871337890625	-242.8430328369141	75.85871124267578	732.6957397460938	-208.8722991943359	26.98667144775391	1370.455322265625	172.2309417724609	32.09840393066406	1312.782836914062	242.6251831054688	59.52302551269531	1048.000610351562	295.90185546875	2.065147638320923	1029.342041015625	220.0787353515625	221.7428741455078	891.7626953125	206.7443542480469	201.3374481201172	865.0452270507812	284.8842468261719	103.0873794555664	993.198486328125	298.8688354492188	314.8717041015625	733.7571411132812	185.2372589111328	305.2294921875	805.3812866210938	206.7002258300781	273.392822265625	779.270751953125	263.8538818359375	-42.36735916137695	1526.021118164062	91.51735687255859	97.58657073974609	1604.87646484375	-47.49911880493164	108.4110336303711	1603.400634765625	45.10493469238281	-56.92457580566406	1518.2978515625	-55.14718246459961	-29.47138977050781	895.5560302734375	-148.8647003173828	-61.34596633911133	916.2738037109375	219.9461517333984	67.72852325439453	919.4421997070312	169.4499359130859	192.9771270751953	479.5908813476562	-97.90981292724609	273.5968017578125	36.08255767822266	-62.02291107177734	228.2941589355469	251.3641204833984	-93.11424255371094	480.03369140625	90.31651306152344	-34.62179183959961	421.2008056640625	62.8786735534668	13.49244213104248	390.2141418457031	66.82943725585938	-93.03845977783203	238.2630157470703	23.49526786804199	2.975618124008179	-21.46956443786621	438.1288452148438	170.7502593994141	1.336423516273499	702.2179565429688	219.7424621582031	-258.8595275878906	57.46196746826172	106.7967529296875	-54.8930549621582	315.2417907714844	147.4170837402344	-66.92295074462891	45.19679641723633	52.03373336791992	-123.4844512939453	45.63233947753906	13.11204814910889	-154.3198852539062	38.9623908996582	129.1100463867188	-311.6870727539062	70.60369873046875	56.53586578369141	127.9120178222656	602.9663696289062	-129.4993896484375	95.59111785888672	912.8678588867188	-79.77413940429688	
246	2.45	-154.7021331787109	961.6154174804688	100.3423538208008	-128.0291900634766	942.2350463867188	-70.7532958984375	-117.9669952392578	1037.422729492188	21.99431610107422	147.8101348876953	1194.607788085938	34.13270950317383	-121.5406188964844	1153.87548828125	33.44321060180664	-61.30792617797852	1390.684814453125	16.63838768005371	92.30785369873047	1298.767211914062	24.4189453125	-115.4155426025391	1262.334716796875	99.48318481445312	-81.03539276123047	1351.4716796875	-86.33460998535156	9.663336753845215	1352.234985351562	-140.5076293945312	-30.79143714904785	1238.043334960938	-210.9284362792969	-50.14787673950195	1037.948852539062	-226.9107971191406	-115.7014770507812	1030.14892578125	-168.5824432373047	40.05225372314453	830.1455688476562	-183.2943267822266	4.293471336364746	815.0775146484375	-244.4139862060547	-35.79020690917969	938.2796630859375	-236.0349578857422	61.40198135375977	643.7809448242188	-185.2909698486328	17.67403793334961	726.6278686523438	-241.8584442138672	71.81376647949219	734.654052734375	-205.5541381835938	16.44366455078125	1370.371826171875	173.3749694824219	19.98629951477051	1312.649658203125	243.6782531738281	44.83946228027344	1047.777954101562	297.8517150878906	-11.41605567932129	1029.431518554688	221.0728302001953	208.9972534179688	893.1228637695312	209.9182434082031	187.8150939941406	865.7076416015625	287.6032409667969	88.46025085449219	993.18896484375	301.2583618164062	303.7142639160156	736.10546875	188.3054504394531	293.0558471679688	807.3932495117188	210.2152099609375	260.8108825683594	780.6263427734375	266.7904663085938	-50.40462875366211	1526.715454101562	92.07136535644531	91.03824615478516	1604.693725585938	-45.94366073608398	101.1134872436523	1603.279541015625	46.77292251586914	-63.88389587402344	1518.90673828125	-54.66817092895508	-38.73403167724609	895.0306396484375	-148.1534881591797	-70.18575286865234	917.0855102539062	221.4344787597656	58.63183975219727	920.4439697265625	170.4776763916016	185.8818359375	480.5604553222656	-97.82389068603516	264.2549133300781	35.97405624389648	-61.66633987426758	219.8966674804688	252.0744171142578	-92.95911407470703	470.5048828125	91.28495788574219	-36.17750549316406	412.3130493164062	63.74914932250977	12.54140663146973	380.3946228027344	66.72682189941406	-93.68047332763672	229.3701629638672	23.71635246276855	3.656775236129761	-29.08015632629395	438.9818420410156	171.2498779296875	-6.710996150970459	703.1524658203125	220.9943695068359	-259.861083984375	55.02532577514648	106.1998443603516	-60.35233306884766	315.5349426269531	147.54833984375	-67.27618408203125	45.22865295410156	51.84358215332031	-123.9093475341797	44.87378311157227	12.85458850860596	-154.9737243652344	38.65640640258789	128.6989135742188	-312.8649597167969	66.90754699707031	55.74623489379883	119.1187896728516	603.2164306640625	-128.7473754882812	86.03252410888672	912.90673828125	-78.79459381103516	
